<svg xmlns="http://www.w3.org/2000/svg" width="417.574" height="200" viewBox="0 0 417.574 200">
  <g id="Layer_2" data-name="Layer 2" transform="translate(-0.045)">
    <g id="Слой_2" data-name="Слой 2" transform="translate(0.045)">
      <path id="Path_1790" data-name="Path 1790" d="M2303.486,1170.058h0a1.868,1.868,0,0,0-.236.029,41.509,41.509,0,0,1-4.68-.487s1.117,4.731,1.739,4.917c1.676.493,3.078,1.966,4.482,2.306a1.727,1.727,0,0,0,2.1-1.348h0a1.738,1.738,0,0,0,.06-.312h0a1.7,1.7,0,0,0-.181-.953l-1.662-3.224A1.724,1.724,0,0,0,2303.486,1170.058Z" transform="translate(-2041.691 -1038.888)" fill="#e7b2b6"/>
      <path id="Path_1791" data-name="Path 1791" d="M2290.635,1163.34l2.895.6.588,5.425-3.577-.017Z" transform="translate(-2034.559 -1033.327)" fill="#d0d6ec"/>
      <path id="Path_1792" data-name="Path 1792" d="M2102.55,898.226l-.094,6.011s-5.115.2-10.242-.006c-4.505-.178-9.02-.671-10.082-1.872-1.211-1.375-2.082-11.958-2.63-21.525-.479-8.368-.712-15.966-.712-15.966s3.866,1.809,4.553,2.275c2.927,1.984,7.264,27.443,7.264,27.443S2101.138,897.671,2102.55,898.226Z" transform="translate(-1846.473 -768.214)" fill="#dfe5f4"/>
      <path id="Path_1793" data-name="Path 1793" d="M2436.11,1726.883l1.147,4.369h11.9S2446.18,1725.485,2436.11,1726.883Z" transform="translate(-2163.86 -1533.696)" fill="#221e50"/>
      <path id="Path_1794" data-name="Path 1794" d="M1945.9,1553.735a3.371,3.371,0,0,1-2.159.569c-1.72,0-2.158-.569-2.158-.569V1529.58h4.317Z" transform="translate(-1724.598 -1358.637)" fill="#b9c0d6"/>
      <path id="Path_1795" data-name="Path 1795" d="M1741.851,1165.522a.133.133,0,0,1-.008.054,22.668,22.668,0,0,1-.619,2.993,17.938,17.938,0,0,1-1.745,4.247c-2.338,3.943-6.771,8.332-17.4,9.764-.515.068-1.046.133-1.591.188q-1.489.151-3.129.224l-.209.008c-.069,0-.139,0-.21.007a51.162,51.162,0,0,1-10.412-1.565c-7.92-1.88-13.081-5.748-16.345-10.455h0q-.416-.6-.791-1.216a25.847,25.847,0,0,1-1.7-3.3,34.584,34.584,0,0,1-2.57-13.03,42.936,42.936,0,0,1,1.377-10.221,18.551,18.551,0,0,1,2.518-5.606,15.084,15.084,0,0,1,.963-1.28,14.229,14.229,0,0,1,3.911-3.29c3.784-2.156,16.23-4.3,26.772,1.258C1740.057,1144.537,1742.978,1157.187,1741.851,1165.522Z" transform="translate(-1496.799 -1004.392)" fill="#b7451d"/>
      <path id="Path_1796" data-name="Path 1796" d="M1821.632,1743.609h-35.813a1.524,1.524,0,0,1-1.519-1.519h0a1.524,1.524,0,0,1,1.519-1.52h35.813a1.523,1.523,0,0,1,1.519,1.52h0A1.523,1.523,0,0,1,1821.632,1743.609Z" transform="translate(-1584.895 -1546.047)" fill="#b9c0d6"/>
      <path id="Path_1797" data-name="Path 1797" d="M1775.765,1453.5a14.654,14.654,0,0,1-2.364,5.971c-2.338,3.252-6.771,6.874-17.4,8.057-.515.057-1.046.112-1.591.153q-1.489.127-3.129.188c-.069,0-.14.007-.209.007s-.139,0-.21.007a51.155,51.155,0,0,1-10.412-1.565c-7.92-1.88-13.081-5.748-16.345-10.455h0q-.416-.6-.791-1.216c6.009-1.434,18.846-3.947,31.6-2.921,6.918.559,14.094,1.175,20.239,1.717Z" transform="translate(-1530.721 -1289.271)" fill="#c5592d"/>
      <path id="Path_1798" data-name="Path 1798" d="M1725.974,855.774s-3.318-.929-3.456-.94c.154.237-1.411,2-4.7,2.466a2.762,2.762,0,0,1-1.147.65c-4.169.216-8.931-1.993-9.42-3.321-10.84,2.123-11.578,3.129-11.865,3.42-8.171,8.412-12.924,28.5-13.777,32.361a.98.98,0,0,0,.426,1.035,31.3,31.3,0,0,0,9.218,3.823,38.649,38.649,0,0,0,4.714.875c.569,4.86,1.839,7.738,3.048,9.249,0,0,5.382-.076,11.25-.3,6.669-.258,14.963-.474,15.713-1.229C1727.028,902.811,1730.83,877.013,1725.974,855.774ZM1695.5,884c-.192,2.707.217,1.565.209,3.593-.773-.26-1.462-.507-2-.73a3.062,3.062,0,0,1-1.237-.7s1.271-1.891,2.472-4.09a29.555,29.555,0,0,0,1.467-3.03A14.465,14.465,0,0,0,1695.5,884Z" transform="translate(-1493.658 -759.118)" fill="#dfe5f4"/>
      <path id="Path_1799" data-name="Path 1799" d="M1940.72,781.236s.91,7.461,1.013,8.515l-6.035.932-3.968-3.288a18.235,18.235,0,0,0,1.565-9.135Z" transform="translate(-1715.849 -691.283)" fill="#d98789"/>
      <path id="Path_1800" data-name="Path 1800" d="M1787.091,1082.765a34.317,34.317,0,0,0-11.142,2.562c-1.208-1.511-2.586-6.651-3.155-11.511a38.638,38.638,0,0,1-4.714-.875c.884-3.055,1.8-6.169,2.459-8.4.541.224,1.229.469,2,.73.008-2.031-.4-.886-.209-3.593.183-2.582.909-6.763,2.26-7.013s1.689,6.135,2.3,11.993a39.28,39.28,0,0,0,1.274,7.463,5.041,5.041,0,0,0,.74,1.516C1781.422,1078.8,1787.775,1080.824,1787.091,1082.765Z" transform="translate(-1570.488 -936.79)" fill="#d0d6ec"/>
      <path id="Path_1801" data-name="Path 1801" d="M1947.046,694.723s-8.649.4-8.812-4.994-1.389-8.969,4.125-9.449,6.651,1.545,7.144,3.33S1949.293,694.482,1947.046,694.723Z" transform="translate(-1721.423 -604.189)" fill="#e7b2b6"/>
      <path id="Path_1802" data-name="Path 1802" d="M1921.6,645.931a7.716,7.716,0,0,1,8.35-6.929c7.7.264,4.372-7.03-2.249-8.1,0,0,.691,2.57-3.473,2.973C1915.484,634.719,1920.82,644.79,1921.6,645.931Z" transform="translate(-1704.786 -560.392)" fill="#555ca5"/>
      <path id="Path_1803" data-name="Path 1803" d="M1975.117,881.651l3.972-.421a.59.59,0,0,1,.4.735,4.941,4.941,0,0,1-1.9,2.4C1977.1,884.452,1974.041,882.807,1975.117,881.651Z" transform="translate(-1754.184 -782.745)" fill="#c5592d"/>
      <path id="Path_1804" data-name="Path 1804" d="M1808.693,1299.175s5,13.022,21.357,13.333c25.683.487,25.681.583,25.681.583s-1.958,12.431,16.263,29.3h10.26l-19.693-48.012-33.516-1.264s-23.431-.526-25.275,2.7C1803.369,1296.525,1808.693,1299.175,1808.693,1299.175Z" transform="translate(-1602.17 -1148.573)" fill="#333383"/>
      <path id="Path_1805" data-name="Path 1805" d="M1722.014,1226.8a21.579,21.579,0,0,1-3.241.412c-.462.021-.931.029-1.411.023a1.147,1.147,0,0,1-.123,0l-.371-.007a51.231,51.231,0,0,1-10.411-1.565c-10.347-2.459-15.981-8.306-18.836-14.976a34.6,34.6,0,0,1-2.571-13.03,43,43,0,0,1,1.376-10.221,18.609,18.609,0,0,1,2.518-5.606q.335-.5.715-.973.121-.154.248-.305C1697.042,1188.01,1718.585,1211.714,1722.014,1226.8Z" transform="translate(-1496.737 -1048.614)" fill="#e09139"/>
      <path id="Path_1806" data-name="Path 1806" d="M1721.513,1229.221a21.6,21.6,0,0,1-3.241.412c-.287.013-.577.021-.871.023a1.147,1.147,0,0,1-.123,0l-.371-.007a51.232,51.232,0,0,1-10.411-1.565c-10.347-2.459-15.981-8.306-18.836-14.976a34.6,34.6,0,0,1-2.57-13.03,43.006,43.006,0,0,1,1.376-10.221,18.61,18.61,0,0,1,2.518-5.606q.335-.5.715-.973C1697.106,1191.063,1718.125,1214.339,1721.513,1229.221Z" transform="translate(-1496.773 -1051.039)" fill="#d5652c"/>
      <path id="Path_1807" data-name="Path 1807" d="M1997.894,845.17a9.1,9.1,0,0,1-2.4,4.379l2.689,3.5s3.255-3.853,3.16-6.613A21.449,21.449,0,0,0,1997.894,845.17Z" transform="translate(-1772.483 -750.716)" fill="#d0d6ec"/>
      <path id="Path_1808" data-name="Path 1808" d="M1999.146,845.17a8.019,8.019,0,0,1-2.246,4.205l2.583,3.18s2.835-3.295,3.109-6.123A21.449,21.449,0,0,0,1999.146,845.17Z" transform="translate(-1773.735 -750.716)" fill="#dfe5f4"/>
      <path id="Path_1809" data-name="Path 1809" d="M1911.682,845.17s4.11,3.9,6.8,4.205l-1.839,4.593s-8.009-4.744-8.032-7.586A11.887,11.887,0,0,1,1911.682,845.17Z" transform="translate(-1695.312 -750.716)" fill="#d0d6ec"/>
      <path id="Path_1810" data-name="Path 1810" d="M1914.311,843.78s3.818,4.051,6.506,4.359l-1.49,4.233s-8.065-4.54-8.088-7.376A11.857,11.857,0,0,1,1914.311,843.78Z" transform="translate(-1697.649 -749.481)" fill="#dfe5f4"/>
      <path id="Path_1811" data-name="Path 1811" d="M1694.959,1135.071s11.949,3.266,13.048,4.569l-.095,6.011s-12.49.79-21.519-4.861a.74.74,0,0,1,0-1.251C1688.567,1138.154,1693.8,1134.922,1694.959,1135.071Z" transform="translate(-1497.624 -1008.213)" fill="#dfe5f4"/>
      <path id="Path_1812" data-name="Path 1812" d="M2108.884,995.242c-4.505-.178-9.269-.486-10.082-1.872-2.722-4.642-.046-16.47-.594-26.04,4.315,8.782,1.118,15.786,1.942,20.372C2100.97,992.251,2105.052,994.313,2108.884,995.242Z" transform="translate(-1863.144 -859.223)" fill="#d0d6ec"/>
      <path id="Path_1813" data-name="Path 1813" d="M1972.9,1360.652a5.866,5.866,0,0,1-1.453-.5,5.507,5.507,0,0,0-1.315-.466c-5.1-.743-9.715-1.653-13.791-2.459q-1.6-.315-3.142-.615c-9.276-1.788-14.536-2.765-14.589-2.771h0c.052.006,5.353.671,14.64,2.459q1.541.3,3.143.615c4.071.8,8.686,1.71,13.774,2.452a5.757,5.757,0,0,1,1.4.492,5.536,5.536,0,0,0,1.356.476C1974.273,1360.522,1974.242,1360.837,1972.9,1360.652Z" transform="translate(-1721.96 -1202.537)" fill="#2b295e"/>
      <path id="Path_1814" data-name="Path 1814" d="M2213.746,1166.412l-.112-.335c-.011-.027-.02-.055-.029-.078l-.021-.059-.031-.089c-.01-.029-.019-.052-.026-.073s-.012-.037-.017-.047Z" transform="translate(-1966.138 -1035.45)" fill="#2b295e"/>
      <path id="Path_1815" data-name="Path 1815" d="M2213.46,1165.75a.224.224,0,0,0,.017.047l.026.073.031.089.021.059c.009.023.018.051.029.078l.112.335.059.165Z" transform="translate(-1966.093 -1035.468)" fill="#2b295e"/>
      <path id="Path_1816" data-name="Path 1816" d="M2213.46,1165.75a.224.224,0,0,0,.017.047Z" transform="translate(-1966.093 -1035.468)" fill="#2b295e"/>
      <path id="Path_1817" data-name="Path 1817" d="M2324.991,1475.871l-.088.025c-3.14-5.606-6.523-12.373-9.661-19.558-.481-1.1-.967-2.235-1.446-3.367-.529-1.253-1.056-2.525-1.564-3.78a4.527,4.527,0,0,1-.25-1.16h0c.092-.135.181-.273.271-.411,0,.011,0,.022,0,.032a5.712,5.712,0,0,0,.266,1.412c.511,1.254,1.037,2.523,1.564,3.775.48,1.133.967,2.266,1.445,3.364C2318.661,1463.376,2321.855,1470.274,2324.991,1475.871Z" transform="translate(-2053.603 -1285.837)" fill="#2b295e"/>
      <path id="Path_1818" data-name="Path 1818" d="M1982.341,903.738s-.753,7.1-.887,9.482c-.375,6.686-.514,26.784-.514,26.784a4.565,4.565,0,0,0,.973,3.154,17.975,17.975,0,0,0,2.394,2.357,8.85,8.85,0,0,0,2.4-4.327c.454-1.88-.635-17.658-1.732-28.172a94.159,94.159,0,0,0-1.464-9.42S1982.612,903.439,1982.341,903.738Z" transform="translate(-1759.548 -802.575)" fill="#d5652c"/>
      <path id="Path_1819" data-name="Path 1819" d="M1904.725,1187.459l-1.493-2.895a1.555,1.555,0,0,0-1.463-.833h0c-.07,0-4.419-.412-4.419-.412s2.3,5.78,2.722,6.214a.8.8,0,0,0,.572.245c1.014.007,4-.068,4.189-1.181a1.49,1.49,0,0,0,.054-.281h0a1.532,1.532,0,0,0-.162-.857Z" transform="translate(-1685.311 -1051.074)" fill="#e7b2b6"/>
      <path id="Path_1820" data-name="Path 1820" d="M1881.775,1175.98l2.895.6.588,5.424-3.577-.016Z" transform="translate(-1671.392 -1044.555)" fill="#d0d6ec"/>
      <path id="Path_1821" data-name="Path 1821" d="M955.329,1252.824h0a.993.993,0,0,0-.112.07,22.529,22.529,0,0,1-2.4.877s.146,1.975.188,2.012l5.507-.24-.24-.887a.969.969,0,0,0-.045-.167h0a.922.922,0,0,0-.315-.421l-1.577-1.173A.936.936,0,0,0,955.329,1252.824Z" transform="translate(-846.34 -1112.709)" fill="#e7b2b6"/>
      <path id="Path_1822" data-name="Path 1822" d="M927.84,1610.226l.823,6.475,3.365.1,2.176-9.375Z" transform="translate(-824.151 -1427.787)" fill="#e7b2b6"/>
      <path id="Path_1823" data-name="Path 1823" d="M928.34,1667.15l-.5,3.6,9.476,4.359S936.853,1669.734,928.34,1667.15Z" transform="translate(-824.151 -1480.833)" fill="#d35c2b"/>
      <path id="Path_1824" data-name="Path 1824" d="M1112.98,1669.515l4.572,4.659,2.743-1.954-3.938-8.781Z" transform="translate(-988.601 -1477.537)" fill="#e7b2b6"/>
      <path id="Path_1825" data-name="Path 1825" d="M1136.36,1741.048l1.051,3.477h10.432S1145.173,1739.836,1136.36,1741.048Z" transform="translate(-1009.368 -1546.294)" fill="#d35c2b"/>
      <path id="Path_1826" data-name="Path 1826" d="M682.541,1546.55a3.452,3.452,0,0,1-2.215.584c-1.767,0-2.216-.584-2.216-.584v-24.8h4.431Z" transform="translate(-602.331 -1351.682)" fill="#b9c0d6"/>
      <path id="Path_1827" data-name="Path 1827" d="M473.057,1148.026a.141.141,0,0,1-.008.056,20.524,20.524,0,0,1-2.427,7.43c-2.4,4.047-6.952,8.552-17.868,10.024q-.792.106-1.634.192-1.527.155-3.213.232c-.143.007-.286.012-.43.016a52.9,52.9,0,0,1-10.691-1.6c-8.132-1.929-13.43-5.9-16.78-10.729h0A26.07,26.07,0,0,1,417.45,1149a35.561,35.561,0,0,1-2.64-13.377,44.139,44.139,0,0,1,1.413-10.494,19.085,19.085,0,0,1,2.585-5.755,15.464,15.464,0,0,1,.989-1.313,14.668,14.668,0,0,1,4.011-3.378c3.886-2.214,16.663-4.42,27.492,1.292C471.214,1126.482,474.213,1139.466,473.057,1148.026Z" transform="translate(-368.457 -988.034)" fill="#b7451d"/>
      <path id="Path_1828" data-name="Path 1828" d="M554.923,1741.419H518.155a1.565,1.565,0,0,1-1.565-1.565h0a1.565,1.565,0,0,1,1.565-1.565h36.768a1.565,1.565,0,0,1,1.565,1.565h0A1.565,1.565,0,0,1,554.923,1741.419Z" transform="translate(-458.862 -1544.022)" fill="#b9c0d6"/>
      <path id="Path_1829" data-name="Path 1829" d="M498.975,1412.2a20.524,20.524,0,0,1-2.427,7.43c-2.4,4.047-6.952,8.552-17.868,10.024q-.792.106-1.634.192-1.527.155-3.213.232c-.143.007-.286.012-.43.016a52.9,52.9,0,0,1-10.691-1.6c-8.132-1.929-13.43-5.9-16.78-10.729h0a26.167,26.167,0,0,1-1.931-3.8c5.568-1.689,19.612-5.329,33.559-3.969C484.9,1410.719,492.528,1411.515,498.975,1412.2Z" transform="translate(-394.385 -1252.157)" fill="#c5592d"/>
      <path id="Path_1830" data-name="Path 1830" d="M524.016,812.467c-2.475-2.459-2.157-21.535-2.185-22.7-.083-3.37-1.356-4.777-1.356-4.777-.654-1.788-11.288-2.693-13.962,4.116-1.712,4.369-6.092,12.863-6.092,12.863-17.9,24.834-10.786,37.089-10.786,37.089l.766-.085a4.035,4.035,0,0,1-.2-2.449l.729,2.432,13.221-1.7a40.285,40.285,0,0,1,1.118-6.5l.063,6.724,1.775.094c-.7-14.18,2.31-21.142,3.2-22.869-.766,7.883,3.05,20.739,3.05,20.739l.547-.123-1.235-6.431,1.587,6.35,1.537-.35q-.368-1.284-.671-2.5c.422,1.565.671,2.5.671,2.5,3.294-3.584,9.327-3.267,9.327-3.267C528.4,827.012,524.016,812.467,524.016,812.467Z" transform="translate(-433.681 -696.119)" fill="#d35c2b"/>
      <path id="Path_1831" data-name="Path 1831" d="M682.009,893.962s-1.026,5.959,2.682,8.772l-3.534,6.2-6.5-7.64a42.344,42.344,0,0,0,.644-9.378Z" transform="translate(-599.266 -792.241)" fill="#d98789"/>
      <path id="Path_1832" data-name="Path 1832" d="M682.028,829.1s-8.057,1.466-8.895-3.563-2.442-8.224,2.663-9.375,6.426.6,7.115,2.211S684.1,828.59,682.028,829.1Z" transform="translate(-597.097 -724.621)" fill="#e7b2b6"/>
      <path id="Path_1833" data-name="Path 1833" d="M614.178,793.644s-10.028,7.728-9.142,13.436c.832,5.364-.747,5.841-1.92,6.351-3.026,1.321-6.995-1.092-8.568-1.015-1.118.056,1.757-1.292,3.585-3.734,4.865-6.5,4.391-15.276,5.364-15.909C610.11,788.466,614.178,793.644,614.178,793.644Z" transform="translate(-527.884 -702.654)" fill="#d35c2b"/>
      <path id="Path_1834" data-name="Path 1834" d="M804.6,1022.747a55.582,55.582,0,0,1-9.445-1.3c-6.871-1.932-7.882-2.825-8.893-9.509a84.837,84.837,0,0,1-.525-18.074c.035-.485.07-.93.112-1.329.13-1.493.248-2.361.248-2.361A7.174,7.174,0,0,1,790.851,996c.884,5.566,1.49,16.027,2.092,17.942.344,1.092,11.245,6.637,11.245,6.637l.315,1.676Z" transform="translate(-697.704 -879.511)" fill="#dfe5f4"/>
      <path id="Path_1835" data-name="Path 1835" d="M804.6,1052.077a55.575,55.575,0,0,1-9.445-1.3c-6.871-1.932-7.882-2.825-8.893-9.51a84.836,84.836,0,0,1-.525-18.073c1.066.464,2.123,2,2.624,5.868,1.244,9.484-.933,15.391,2.954,18.113,3.241,2.268,10.266,3.865,13.187,4.41Z" transform="translate(-697.704 -908.84)" fill="#d0d6ec"/>
      <path id="Path_1836" data-name="Path 1836" d="M530.705,983.253c-.065-.112-.125-.224-.179-.335a5.542,5.542,0,0,1-.467-1.669,28.811,28.811,0,0,0-1.477-5.3l-4.446-1.788c.06.095,2.176,3.458-3.234,3.418-2.1-.016-2.974-1.914-3.576-3.328l-6.634,1.565s-3.666.68-4.508,2.072c-6.181,10.231-9.835,19.66-10.581,22.653a1.73,1.73,0,0,0,.529,1.548c1.118.829,1.951,1.041,5.493,1.684.6.112,1.171.191,1.722.251a21.705,21.705,0,0,0,5.836-.1c-1.18,3.9-2.917,8-2.917,8a6.962,6.962,0,0,0,1.95.745c.335.092,13.985,2.321,14.435,2.41,1.721.335,7.743-3.011,7.743-3.011s-3.912-4.806-.782-14.966C531.149,992.09,532.2,985.806,530.705,983.253ZM505.17,998.9a17.9,17.9,0,0,0-2.693-.559c5.611-7.843,6.134-8.329,6.187-8.393a.028.028,0,0,1,0,.01c.068.264,1.582,6.071,1.582,8.689a11.347,11.347,0,0,1-.074,1.788,47.039,47.039,0,0,0-5-1.539Z" transform="translate(-440.193 -865.29)" fill="#dfe5f4"/>
      <path id="Path_1837" data-name="Path 1837" d="M600.582,1120.326c-.749,2.794-2.328,6.634-4.855,7.878a8.057,8.057,0,0,1-2.517.583,6.962,6.962,0,0,1-1.95-.745s4.271-8.657,3.983-13.284a76.08,76.08,0,0,0-1.583-8.689c.335-.631.782-1.208,1.3-1.185C596.1,1104.936,601.333,1117.525,600.582,1120.326Z" transform="translate(-525.187 -981.404)" fill="#d0d6ec"/>
      <path id="Path_1838" data-name="Path 1838" d="M572.789,1309.182c-.479,1.006-6.8,12.376,3.688,15.407s33.192,2.212,33.192,2.212,2.407,9.513,5.376,13.694c4.768,6.714,13.267,14.245,13.267,14.245h9.731s-16.832-36.461-20.252-38.948c-2.5-1.819-15.087-5.039-22.044-6.119-1.7-.263-11.951-.574-14.7-.682C576.747,1308.821,573.055,1308.624,572.789,1309.182Z" transform="translate(-506.716 -1162.543)" fill="#555ca5"/>
      <path id="Path_1839" data-name="Path 1839" d="M796.69,1279.149s21.417-6.538,25.507-4.191c7.264,4.175-5.17,41.313-5.17,41.313l-7.167-1.148s-1.341-10.044-.27-16.789c.621-3.911,2.882-14.024,2.882-14.024s-5.476-2.222-7.359-2.768C802.741,1280.849,796.69,1279.149,796.69,1279.149Z" transform="translate(-707.658 -1132.02)" fill="#333383"/>
      <path id="Path_1840" data-name="Path 1840" d="M452.725,1210.917a22.013,22.013,0,0,1-3.321.424c-.475.021-.957.029-1.453.025a1.147,1.147,0,0,1-.126,0l-.38-.008a52.9,52.9,0,0,1-10.691-1.6c-10.617-2.52-16.409-8.527-19.334-15.376A35.56,35.56,0,0,1,414.78,1181a44.138,44.138,0,0,1,1.413-10.494,19.082,19.082,0,0,1,2.585-5.755c.23-.342.475-.671.734-1,.083-.112.168-.21.255-.314C427.086,1171.1,449.2,1195.432,452.725,1210.917Z" transform="translate(-368.43 -1033.416)" fill="#e09139"/>
      <path id="Path_1841" data-name="Path 1841" d="M452.2,1213.413a22.052,22.052,0,0,1-3.323.424c-.3.013-.592.021-.894.025a1.147,1.147,0,0,1-.126,0l-.38-.008a52.893,52.893,0,0,1-10.691-1.6c-10.617-2.52-16.409-8.527-19.334-15.376a35.56,35.56,0,0,1-2.64-13.377A44.141,44.141,0,0,1,416.223,1173a19.084,19.084,0,0,1,2.585-5.756c.23-.342.475-.671.734-1C427.142,1174.236,448.723,1198.133,452.2,1213.413Z" transform="translate(-368.457 -1035.912)" fill="#d5652c"/>
      <path id="Path_1842" data-name="Path 1842" d="M633.515,1213.374h0a.825.825,0,0,0-.129-.013,9.43,9.43,0,0,1-1.715-.671l-.36,1.958c0,.05-.23.671.029,1.015,1.652,2.215,2.254,1.919,2.254,1.919l1.052-.929a1,1,0,0,0,.07-.158h0a.933.933,0,0,0,.022-.526l-.479-1.9a.937.937,0,0,0-.744-.7Z" transform="translate(-560.678 -1077.162)" fill="#e7b2b6"/>
      <path id="Path_1843" data-name="Path 1843" d="M680.2,1379.87a5.927,5.927,0,0,1-1.488-.515,5.737,5.737,0,0,0-1.35-.478c-5.232-.763-9.974-1.7-14.159-2.521l-3.225-.63c-9.523-1.834-14.925-2.839-14.976-2.845h0c.054.007,5.5.688,15.031,2.525q1.58.305,3.226.631c4.18.823,8.918,1.756,14.142,2.518a5.944,5.944,0,0,1,1.443.505,5.7,5.7,0,0,0,1.391.488C681.607,1379.737,681.575,1380.062,680.2,1379.87Z" transform="translate(-572.921 -1219.45)" fill="#333383"/>
      <path id="Path_1844" data-name="Path 1844" d="M883.44,1148.21a.249.249,0,0,0,.017.048Z" transform="translate(-784.714 -1019.888)" fill="#333383"/>
      <path id="Path_1845" data-name="Path 1845" d="M997.913,1466.589l-.091.025c-3.224-5.756-6.7-12.7-9.92-20.083-.493-1.128-.992-2.292-1.485-3.458-.542-1.286-1.084-2.592-1.609-3.88a4.706,4.706,0,0,1-.258-1.191h0c.1-.139.187-.281.278-.421a.288.288,0,0,1,0,.032,5.789,5.789,0,0,0,.274,1.453c.524,1.287,1.065,2.592,1.607,3.876.493,1.165.992,2.328,1.483,3.454C991.417,1453.759,994.693,1460.843,997.913,1466.589Z" transform="translate(-874.523 -1276.919)" fill="#333383"/>
      <path id="Path_1846" data-name="Path 1846" d="M883.457,1148.258l-.017-.048C883.444,1148.22,883.449,1148.236,883.457,1148.258Z" transform="translate(-784.714 -1019.888)" fill="#333383"/>
      <path id="Path_1847" data-name="Path 1847" d="M497.485,1188.754s3.005-1,9.3.946c5.11,1.577,4.535,1.5,4.535,1.5l-.447,2.669a20.587,20.587,0,0,1-12.74-.482s-2.983-.658-2.31-2.761S497.485,1188.754,497.485,1188.754Z" transform="translate(-440.329 -1055.673)" fill="#dfe5f4"/>
      <rect id="Rectangle_1580" data-name="Rectangle 1580" width="360.38" height="57.788" transform="translate(39.755 140.11)" fill="#555ca5"/>
      <path id="Path_1848" data-name="Path 1848" d="M416.6,1770.77H1.063a1.052,1.052,0,0,0,0,2.1H416.6a1.052,1.052,0,0,0,0-2.1Z" transform="translate(-0.045 -1572.872)" fill="#d0d6ec"/>
      <rect id="Rectangle_1581" data-name="Rectangle 1581" width="373.162" height="4.3" transform="translate(35.442 136.52)" fill="#333383"/>
      <path id="Path_1849" data-name="Path 1849" d="M735.1,1054.67h27.1l-5.921,18.652h-27.6Z" transform="translate(-647.258 -936.802)" fill="#d35c2b"/>
      <path id="Path_1850" data-name="Path 1850" d="M2155.023,1054.67h27.1l-7.046,18.652H2148.61Z" transform="translate(-1908.491 -936.802)" fill="#d35c2b"/>
      <path id="Path_1851" data-name="Path 1851" d="M904.58,949.17h10.477a14.81,14.81,0,0,1,5.259,13.62l-11.656.848S911.221,956.155,904.58,949.17Z" transform="translate(-803.491 -843.093)" fill="#dfe5f4"/>
      <path id="Path_1852" data-name="Path 1852" d="M1188,894.239a69.083,69.083,0,0,0,3.386,9.388l4.478-1.538a45.45,45.45,0,0,1-.69-10.039Z" transform="translate(-1055.236 -792.356)" fill="#d98789"/>
      <path id="Path_1853" data-name="Path 1853" d="M1066.029,1306.051s-32.446,4.406-36.762,11.406c0,0-2.139,3.145,1.2,12.182s11.818,23.868,11.818,23.868h4.837s-7.424-28.7-7.674-29.951c0,0,24.454,2.864,27.7-1.85s-1.118-15.656-1.118-15.656Z" transform="translate(-913.644 -1160.089)" fill="#d98789"/>
      <path id="Path_1854" data-name="Path 1854" d="M980.174,1306.051s-31.435,4.406-35.751,11.406c0,0-2.14,3.145,1.2,12.182s11.818,23.868,11.818,23.868h4.837s-7.424-28.7-7.673-29.951c0,0,24.453,2.864,27.7-1.85s-1.118-15.656-1.118-15.656Z" transform="translate(-838.281 -1160.089)" fill="#e7b2b6"/>
      <path id="Path_1855" data-name="Path 1855" d="M944.109,975.521c-2.55,1.275-15.775,14.217-15.775,14.217s-6.594-8.74-7.6-10.53a.982.982,0,0,1-.048-.3,4,4,0,0,0-2.086-3.024c-1.282-.782-.871-.691-1.77-1.265s-1.1.845-1.1.845a4.084,4.084,0,0,0,2.464,4.212.614.614,0,0,1,.362.565s3.723,14.586,9.779,17.528c0,0,15.186-8.9,15.775-13.539s5.406-9.735,5.406-9.735A11.84,11.84,0,0,0,944.109,975.521Z" transform="translate(-813.386 -865.574)" fill="#e7b2b6"/>
      <path id="Path_1856" data-name="Path 1856" d="M1081.008,1012.429c-4.127,3.057-33.416,1.31-33.416,1.31a9.888,9.888,0,0,0-.112-4.207c-.643-4.08-2.14-9.427-2.14-9.427,6.181-2.45,22.084-5.039,22.24-6.01.121-.761-4.876-9.758-7.518-14.168a.118.118,0,0,0-.01-.017h0a25.955,25.955,0,0,0-1.482-2.313c-.978-1.134-.407-5.718-.581-5.937h0c-.209-.178-2.845,2.491-2.845,2.491-.261-2.246-4.393-8.566-4.393-8.566s7.521-6.884,8.629-7.535c1.565-.923,10.3-2.276,16.413-2.626,3.464-.2,4.319,4.713,4.612,10.493.224,4.413.12,9.333.6,12.871,1.111,8.175,7.183,16.8,7.533,22.21S1085.136,1009.373,1081.008,1012.429Z" transform="translate(-928.52 -848.643)" fill="#f2d370"/>
      <path id="Path_1857" data-name="Path 1857" d="M1165.625,820.969s8.619,1.574,9.516-3.809,2.614-8.8-2.851-10.037-6.88.643-7.616,2.367S1163.406,820.421,1165.625,820.969Z" transform="translate(-1033.95 -716.568)" fill="#e7b2b6"/>
      <path id="Path_1858" data-name="Path 1858" d="M1184.064,830.268l-1.761.112-.514-1.949v1.979l-6.128.369a86.619,86.619,0,0,0-.882-9.574c.182,2.467.4,7.423.287,9.668l-1.8.05s-2.1-20.757-5.631-23.226c-5.578-3.9-3.53-7.264-3.53-7.264,1.837-4.806,9.575-4.687,12.358-2.3C1181.916,802.809,1184.064,830.268,1184.064,830.268Z" transform="translate(-1033.685 -707.505)" fill="#555ca5"/>
      <path id="Path_1859" data-name="Path 1859" d="M1261.41,1009.37a5.283,5.283,0,0,1,.126.894C1261.464,1009.738,1261.414,1009.414,1261.41,1009.37Z" transform="translate(-1120.442 -896.565)" fill="#555ca5"/>
      <path id="Path_1860" data-name="Path 1860" d="M1098.017,1095.792c-4.127,3.057-33.416,1.31-33.416,1.31a9.888,9.888,0,0,0-.112-4.207c5.883-.038,22.986-.231,27.3-1.187,5.239-1.159,5.106-13.74,1.965-20.645-3.129-6.87,3.613-21.011,3.652-21.793.224,4.413.12,9.333.6,12.871,1.111,8.175,7.183,16.8,7.532,22.21S1102.146,1092.736,1098.017,1095.792Z" transform="translate(-945.53 -932.006)" fill="#de8f39" opacity="0.2"/>
      <path id="Path_1861" data-name="Path 1861" d="M1160.517,1104.066a26.025,26.025,0,0,0-1.482-2.313c-.978-1.134-.407-5.718-.581-5.937h0a1.466,1.466,0,0,1,1.341-.609C1161.239,1095.335,1159.2,1101.8,1160.517,1104.066Z" transform="translate(-1028.983 -972.801)" fill="#de8f39" opacity="0.2"/>
      <path id="Path_1862" data-name="Path 1862" d="M1096.412,1724.191l-1.222,4.952h-12.12S1086.17,1722.463,1096.412,1724.191Z" transform="translate(-962.033 -1531.245)" fill="#c5592d"/>
      <path id="Path_1863" data-name="Path 1863" d="M1015.183,1724.191l-1.222,4.952H1001.84S1004.941,1722.463,1015.183,1724.191Z" transform="translate(-889.881 -1531.245)" fill="#d35c2b"/>
      <path id="Path_1864" data-name="Path 1864" d="M1104.295,1538.884a1.664,1.664,0,0,1-1.659,1.66h-39.1a1.66,1.66,0,0,1,0-3.318h17.533V1511.48h4.713v25.746h16.858A1.664,1.664,0,0,1,1104.295,1538.884Z" transform="translate(-943.244 -1342.56)" fill="#b9c0d6"/>
      <path id="Path_1865" data-name="Path 1865" d="M1182.986,1086.884c-2.03,12.629-4.972,30.817-5.467,33.236-.768,3.753-8.2,3.676-26.127,3.353-3.017-.055-5.708-.087-8.1-.1-1.724-.011-3.292-.015-4.713-.011-8.322.02-11.587.256-11.587.256s-5.022-9.259,24.4-6.22c3.335.344,4.794-16.428,5.426-29.5a14.81,14.81,0,0,1,15.767-14.06,11.274,11.274,0,0,1,10.4,13.051Z" transform="translate(-1000.759 -953.797)" fill="#d35c2b"/>
      <path id="Path_1866" data-name="Path 1866" d="M424.747,18.325V0H421V18.325H371.76V56.49H472.389V18.325Z" transform="translate(-330.218)" fill="#d0d6ec"/>
      <rect id="Rectangle_1582" data-name="Rectangle 1582" width="97.207" height="34.608" transform="translate(43.347 19.947)" fill="#dfe5f4"/>
      <rect id="Rectangle_1583" data-name="Rectangle 1583" width="16.433" height="27.706" transform="translate(47.67 23.071)" fill="#d0d6ec"/>
      <rect id="Rectangle_1584" data-name="Rectangle 1584" width="69.1" height="3.486" transform="translate(68.147 23.071)" fill="#d0d6ec"/>
      <rect id="Rectangle_1585" data-name="Rectangle 1585" width="69.1" height="3.486" transform="translate(68.147 29.554)" fill="#d0d6ec"/>
      <rect id="Rectangle_1586" data-name="Rectangle 1586" width="69.1" height="3.486" transform="translate(68.147 36.924)" fill="#d0d6ec"/>
      <path id="Path_1867" data-name="Path 1867" d="M2659.087,18.325V0h-3.752V18.325H2606.1V56.49h100.629V18.325Z" transform="translate(-2314.853)" fill="#d0d6ec"/>
      <rect id="Rectangle_1587" data-name="Rectangle 1587" width="97.206" height="34.608" transform="translate(293.053 19.947)" fill="#dfe5f4"/>
      <rect id="Rectangle_1588" data-name="Rectangle 1588" width="16.433" height="27.706" transform="translate(297.374 23.071)" fill="#d0d6ec"/>
      <rect id="Rectangle_1589" data-name="Rectangle 1589" width="69.1" height="3.486" transform="translate(317.853 23.071)" fill="#d0d6ec"/>
      <rect id="Rectangle_1590" data-name="Rectangle 1590" width="69.1" height="3.486" transform="translate(317.853 29.554)" fill="#d0d6ec"/>
      <rect id="Rectangle_1591" data-name="Rectangle 1591" width="69.1" height="3.486" transform="translate(317.853 36.924)" fill="#d0d6ec"/>
      <path id="Path_1868" data-name="Path 1868" d="M1555.556,18.325V0H1551.8V18.325H1502.57V56.49H1603.2V18.325Z" transform="translate(-1334.651)" fill="#d0d6ec"/>
      <rect id="Rectangle_1592" data-name="Rectangle 1592" width="97.206" height="34.608" transform="translate(169.724 19.947)" fill="#dfe5f4"/>
      <path id="Path_1869" data-name="Path 1869" d="M1564.62,247.637V223.4h8.494a16.268,16.268,0,0,1,3.778.4,8.037,8.037,0,0,1,2.822,1.229,5.431,5.431,0,0,1,1.763,2.072,6.662,6.662,0,0,1,.608,2.947,6.079,6.079,0,0,1-.208,1.6,5.141,5.141,0,0,1-1.707,2.637,5.525,5.525,0,0,1-1.548.894,5.348,5.348,0,0,1,1.823.807,4.99,4.99,0,0,1,1.964,2.813,6.655,6.655,0,0,1,.224,1.723,6.382,6.382,0,0,1-2.271,5.326,10.213,10.213,0,0,1-6.468,1.8Zm4.993-14.082h3.7a4.523,4.523,0,0,0,2.846-.807,2.7,2.7,0,0,0,.932-2.2,2.783,2.783,0,0,0-.958-2.373,5.039,5.039,0,0,0-3.017-.724h-3.5Zm0,3.529v6.541h4.278a5.118,5.118,0,0,0,1.665-.241,3.292,3.292,0,0,0,1.165-.671,2.635,2.635,0,0,0,.691-1,3.423,3.423,0,0,0,.224-1.257,4.608,4.608,0,0,0-.2-1.406,2.589,2.589,0,0,0-1.731-1.74,5.076,5.076,0,0,0-1.632-.232Z" transform="translate(-1389.766 -198.433)" fill="#d0d6ec"/>
      <path id="Path_1870" data-name="Path 1870" d="M1756.725,242.651h-8.755l-1.664,4.994H1741l9.021-24.236h4.628l9.071,24.236h-5.31Zm-7.406-4.045h6.058l-3.047-9.071Z" transform="translate(-1546.434 -198.442)" fill="#d0d6ec"/>
      <path id="Path_1871" data-name="Path 1871" d="M1984.211,247.646h-4.993l-9.723-15.947v15.947H1964.5V223.41h4.995l9.737,15.981V223.41h4.977Z" transform="translate(-1744.957 -198.442)" fill="#d0d6ec"/>
      <path id="Path_1872" data-name="Path 1872" d="M2187.48,237.89l-2.6,2.794v6.929h-4.993V223.374h4.993V234.36l2.2-3.017,6.176-7.973h6.147l-8.605,10.769,8.854,13.467h-5.942Z" transform="translate(-1936.275 -198.407)" fill="#d0d6ec"/>
      <path id="Path_1873" data-name="Path 1873" d="M1182.986,1091.287c-2.03,12.629-4.972,30.817-5.467,33.236-.768,3.753-8.2,3.676-26.127,3.353-3.017-.055-24.4.142-24.4.142s-5.022-9.259,24.4-6.22c10.406,2.37,8.067-30.385,11.982-37.215,2.75-4.806,8.582-5.823,11.933-5.822A11.288,11.288,0,0,1,1182.986,1091.287Z" transform="translate(-1000.759 -958.2)" fill="#b65224"/>
      <path id="Path_1874" data-name="Path 1874" d="M2617.924,1575.159l-7.066-.009v-1.933a1.724,1.724,0,0,0-1.72-1.726l-9.206-.011a1.726,1.726,0,0,0-1.726,1.721v1.935l-7.065-.009a1.961,1.961,0,0,0-1.964,1.959l-.018,14.669a1.96,1.96,0,0,0,1.959,1.964l26.782.034a1.961,1.961,0,0,0,1.964-1.959l.018-14.67A1.96,1.96,0,0,0,2617.924,1575.159Zm-18.008-1.956a.016.016,0,0,1,.016-.016l9.206.011a.016.016,0,0,1,.016.016v1.934l-9.236-.012Z" transform="translate(-2299.806 -1395.854)" fill="#d5652c"/>
      <rect id="Rectangle_1593" data-name="Rectangle 1593" width="30.706" height="0.574" transform="translate(289.366 186.163) rotate(0.07)" fill="#c5592d"/>
      <path id="Path_1875" data-name="Path 1875" d="M2513.793,1276s-39.989,14.434-40.457,15.563l-14.976,35.672a9.537,9.537,0,0,0-5.491,4.055h12.405l1.022-3.9h2.7c15.324-14.193,16.963-25.369,17.023-29.162a1.48,1.48,0,0,1,1.435-1.458c2.417-.075-2.2-.232,14.338-.547,17.055-.324,22.586-16,22.586-16Z" transform="translate(-2178.747 -1133.397)" fill="#2b295e"/>
      <path id="Path_1876" data-name="Path 1876" d="M2368.511,1728.178l-1.2,4.556H2354.91S2358.009,1726.716,2368.511,1728.178Z" transform="translate(-2091.735 -1534.837)" fill="#221e50"/>
      <path id="Path_1877" data-name="Path 1877" d="M2480.184,1282.321s-5.218,13.581-22.273,13.9c-16.54.314-22.867.472-25.285.547a1.48,1.48,0,0,0-1.434,1.458c-.06,3.8-1.7,14.976-17.023,29.162h-10.7l17.135-42.776c.464-1.129,38.356-8.617,38.356-8.617Z" transform="translate(-2134.868 -1133.397)" fill="#333383"/>
      <path id="Path_1878" data-name="Path 1878" d="M2666.984,1346.231a6.07,6.07,0,0,0,1.511-.524,5.832,5.832,0,0,1,1.371-.486c5.314-.774,10.132-1.723,14.382-2.56,1.118-.224,2.205-.435,3.277-.64,9.671-1.863,15.16-2.883,15.215-2.89h0c-.055.007-5.588.7-15.268,2.564q-1.608.311-3.278.641c-4.247.836-9.059,1.788-14.364,2.557a6.044,6.044,0,0,0-1.466.513,5.751,5.751,0,0,1-1.414.5C2665.551,1346.095,2665.584,1346.425,2666.984,1346.231Z" transform="translate(-2367.985 -1189.472)" fill="#2b295e"/>
      <path id="Path_1879" data-name="Path 1879" d="M2484.64,1466.345l.092.026c3.276-5.846,6.8-12.9,10.077-20.4.5-1.146,1.006-2.328,1.508-3.513.551-1.306,1.1-2.632,1.635-3.942a4.738,4.738,0,0,0,.261-1.209h0c-.1-.14-.189-.284-.283-.428v.034a5.743,5.743,0,0,1-.277,1.472c-.532,1.307-1.082,2.633-1.633,3.937-.5,1.182-1.006,2.364-1.507,3.508C2491.241,1453.314,2487.911,1460.509,2484.64,1466.345Z" transform="translate(-2206.966 -1276.297)" fill="#2b295e"/>
      <path id="Path_1880" data-name="Path 1880" d="M2819.885,829.708a27.216,27.216,0,0,1-3.264-6.393l5.957-3.516c2.1,4.409,7.034,7.711,7.034,7.711S2819.909,829.746,2819.885,829.708Z" transform="translate(-2501.845 -728.181)" fill="#91562d"/>
      <path id="Path_1881" data-name="Path 1881" d="M2777.947,729.008s9.355.428,9.532-5.4,1.5-9.7-4.463-10.221-7.195,1.676-7.727,3.6S2775.517,728.747,2777.947,729.008Z" transform="translate(-2464.99 -633.589)" fill="#a05f32"/>
      <path id="Path_1882" data-name="Path 1882" d="M2775.735,704.035a5.574,5.574,0,0,1,4.166,4.175c1.026,3.68,5.44,7.348,6.8,7.166,0,0,8.086-10.906-.151-15.392C2780.457,696.663,2774.783,700.583,2775.735,704.035Z" transform="translate(-2465.436 -620.637)" fill="#555ca5"/>
      <path id="Path_1883" data-name="Path 1883" d="M2437.981,1192.934c.525-1.453,1.043-3.634,1.043-3.634a41.747,41.747,0,0,1-4.68.488,1.72,1.72,0,0,0-.237-.03h0a1.725,1.725,0,0,0-1.626.928l-1.16,2.249Z" transform="translate(-2159.605 -1056.386)" fill="#a05f32"/>
      <path id="Path_1884" data-name="Path 1884" d="M2549.6,871.569c-.39-.592-.772-1.168-1.142-1.72-1.98-2.962-2.977-4.745-4.47-6.048-3.039-2.661-8.879-1.956-8.9-1.952h0s-2.341.825-3.449,1.094a39.68,39.68,0,0,0-4.392,1.329c-.149.04-9.075,2.478-9.892,5.769-1.384,5.575-10.336,24.1-10.336,24.1s-13.381,2.967-17.248,4.343l-.8,3.521,22.57-.028a98.07,98.07,0,0,0,10.783-13.006l.044.122c.894,2.517,1.768,5.048,2.467,7.413,1.855,6.289,3.364,11.825,7.041,12.573,2.283.465,4.261.865,5.979,1.191,13.208,2.522,10.94.751,13.485-9.115a25.9,25.9,0,0,0,.224-11.372c.759-.279,1.492-.576,2.17-.894a12.943,12.943,0,0,0,2.39-1.374C2558.444,885.749,2553.669,877.769,2549.6,871.569Z" transform="translate(-2210.812 -765.452)" fill="#f2d370"/>
      <path id="Path_1885" data-name="Path 1885" d="M3025.4,948.643a12.938,12.938,0,0,1-2.39,1.373c-3.032-6.578-4.952-15.423-5.723-19.437.505.671,1.037,1.381,1.583,2.117C3022.945,938.9,3027.72,946.877,3025.4,948.643Z" transform="translate(-2680.089 -826.58)" fill="#de8f39" opacity="0.2"/>
      <path id="Path_1886" data-name="Path 1886" d="M2803.306,1107.278c-1.718-.326-3.7-.726-5.979-1.191-3.675-.748-5.183-6.284-7.041-12.573-.7-2.365-1.576-4.9-2.467-7.413a3.492,3.492,0,0,1,2.262-2.516C2792.842,1082.8,2803.268,1102.386,2803.306,1107.278Z" transform="translate(-2476.263 -962.465)" fill="#de8f39" opacity="0.2"/>
      <path id="Path_1887" data-name="Path 1887" d="M2672.713,1537.226H2655.9V1511.48h-4.714v25.746H2633.7a1.69,1.69,0,0,0-1.691,1.453,1.666,1.666,0,0,0,1.647,1.862h39.1a1.665,1.665,0,0,0,1.647-1.862A1.69,1.69,0,0,0,2672.713,1537.226Z" transform="translate(-2337.854 -1342.56)" fill="#b9c0d6"/>
      <path id="Path_1888" data-name="Path 1888" d="M2753.45,1087c-2.029,12.615-4.933,30.575-5.425,32.978-.584,2.853-5.016,3.493-14.976,3.493-3.146,0-6.844-.064-11.147-.142-17.929-.325-24.4.142-24.4.142s-5.021-9.259,24.4-6.22c3.353.346,4.812-16.636,5.436-29.734a14.561,14.561,0,0,1,15.5-13.841A11.52,11.52,0,0,1,2753.451,1087Z" transform="translate(-2395.753 -953.654)" fill="#d35c2b"/>
      <path id="Path_1889" data-name="Path 1889" d="M2753.37,1101.443c-2.028,12.615-4.933,30.575-5.425,32.978-.584,2.853-5.016,3.493-14.976,3.493h-35.555s-5.021-9.259,24.4-6.22c10.99,2.249,8.7-28.672,8.954-31.241s4.929-8.97,10.217-10.291,10.457,2.865,10.457,2.865h0A11.459,11.459,0,0,1,2753.37,1101.443Z" transform="translate(-2395.674 -968.098)" fill="#b65224"/>
      <g id="Group_2987" data-name="Group 2987" transform="translate(24.778 1.267)">
        <path id="Path_1890" data-name="Path 1890" d="M541.2,319.642l-1.914,1.921-1.055-1.052,1.914-1.921Z" transform="translate(-502.862 -284.252)" fill="#ff1b21"/>
        <path id="Path_1891" data-name="Path 1891" d="M573.629,238.64l-1.72,1.09-3.811-3.006-.025.016,2.451,3.869-1.69,1.071-4.954-7.823,2.2-1.393a4.149,4.149,0,0,1,1.477-.568,2.018,2.018,0,0,1,1.453.229,3.05,3.05,0,0,1,1.013.981,2.523,2.523,0,0,1,.447,1.39,3.26,3.26,0,0,1-.464,1.483Zm-5.834-2.339q.821-.522.836-.981a1.692,1.692,0,0,0-.3-.956q-.71-1.118-1.625-.54l-.343.217Z" transform="translate(-525.645 -207.204)" fill="#ff1b21"/>
        <path id="Path_1892" data-name="Path 1892" d="M635.05,206.554l-4.262,1.775-3.557-8.546,4-1.663.685,1.65-2.161.9.723,1.738,1.854-.772.66,1.588-1.854.771.782,1.889,2.428-1.011Z" transform="translate(-581.915 -177.245)" fill="#ff1b21"/>
        <path id="Path_1893" data-name="Path 1893" d="M700.009,189.27a3.408,3.408,0,0,1-.036,2.328,2.438,2.438,0,0,1-1.713,1.153,2.794,2.794,0,0,1-.782.1,5.258,5.258,0,0,1-.976-.179l-.5-1.979a.989.989,0,0,1,.259.087,2.128,2.128,0,0,0,1.287.2q.777-.194.487-1.341l-1.551-6.167,1.94-.488Z" transform="translate(-643 -163.797)" fill="#ff1b21"/>
        <path id="Path_1894" data-name="Path 1894" d="M747.047,184.082l-4.593.456-.914-9.211,4.307-.427.175,1.777-2.33.231.186,1.873,2-.2.17,1.711-2,.2.2,2.035,2.618-.259Z" transform="translate(-683.45 -156.62)" fill="#ff1b21"/>
        <path id="Path_1895" data-name="Path 1895" d="M805.417,183.9a4.178,4.178,0,0,1-1.716.224,3.643,3.643,0,0,1-2.715-1.4,5.094,5.094,0,0,1-.894-3.629,5.231,5.231,0,0,1,1.341-3.557,3.41,3.41,0,0,1,2.665-1.052,4.556,4.556,0,0,1,1.864.58l-.123,1.938a6.428,6.428,0,0,0-.988-.517,2.277,2.277,0,0,0-.5-.084,1.823,1.823,0,0,0-1.417.564,3.315,3.315,0,0,0-.733,2.2,3.5,3.5,0,0,0,.427,2.34,1.839,1.839,0,0,0,1.381.738,2.714,2.714,0,0,0,1.536-.454Z" transform="translate(-735.443 -156.252)" fill="#ff1b21"/>
        <path id="Path_1896" data-name="Path 1896" d="M871.743,183.206l-1.752-.412-1.708,7.264-1.949-.457,1.7-7.25-1.788-.421.414-1.76,5.49,1.291Z" transform="translate(-794.223 -161.301)" fill="#ff1b21"/>
        <path id="Path_1897" data-name="Path 1897" d="M911.087,209l-4.267-1.762,3.534-8.555,4,1.653-.682,1.65-2.165-.894-.719,1.739,1.863.763L912,205.18l-1.86-.764-.782,1.891,2.432,1.006Z" transform="translate(-830.259 -177.743)" fill="#ff1b21"/>
        <path id="Path_1898" data-name="Path 1898" d="M958.046,225.17l1.865,1.2a3.81,3.81,0,0,1,1.841,2.588,4.9,4.9,0,0,1-.92,3.465,5.046,5.046,0,0,1-2.763,2.331,3.853,3.853,0,0,1-3.216-.627l-1.8-1.16Zm.8,2.5-3.188,4.973.2.127a2.108,2.108,0,0,0,1.315.263q.809-.06,1.806-1.619a5.535,5.535,0,0,0,.845-1.764,1.753,1.753,0,0,0-.132-1.106,1.836,1.836,0,0,0-.659-.757Z" transform="translate(-871.322 -201.272)" fill="#ff1b21"/>
        <path id="Path_1899" data-name="Path 1899" d="M1042.43,326.514l-1.89-1.946,1.068-1.038,1.889,1.946Z" transform="translate(-949.035 -288.64)" fill="#ff1b21"/>
        <path id="Path_1900" data-name="Path 1900" d="M523.529,819.126,521.72,817.1l1.11-.994,1.809,2.021Z" transform="translate(-488.197 -726.17)" fill="#ff1b21"/>
        <path id="Path_1901" data-name="Path 1901" d="M566.664,837.737l-1.676-1.162,1.293-4.679-.025-.017-2.612,3.762L562,834.5l5.278-7.6,2.137,1.483a4.135,4.135,0,0,1,1.1,1.141,2.011,2.011,0,0,1,.353,1.427,3.025,3.025,0,0,1-.511,1.314,2.472,2.472,0,0,1-1.109.949,3.327,3.327,0,0,1-1.547.145Zm-.112-6.285q.8.559,1.229.389a1.688,1.688,0,0,0,.763-.647q.758-1.09-.133-1.708l-.335-.231Z" transform="translate(-523.975 -735.754)" fill="#ff1b21"/>
        <path id="Path_1902" data-name="Path 1902" d="M627.84,869.146l-4.2-1.916,3.84-8.421,3.937,1.8-.741,1.625-2.13-.972-.782,1.713,1.826.833-.713,1.565-1.825-.838-.849,1.861,2.395,1.1Z" transform="translate(-578.727 -764.098)" fill="#ff1b21"/>
        <path id="Path_1903" data-name="Path 1903" d="M682.263,889.12a3.416,3.416,0,0,1-1.185,2,2.432,2.432,0,0,1-2.059.153,2.811,2.811,0,0,1-.731-.3,5.469,5.469,0,0,1-.759-.638l.549-1.97a.982.982,0,0,1,.182.2,2.1,2.1,0,0,0,1.02.807q.771.215,1.09-.928l1.707-6.124,1.927.536Z" transform="translate(-626.594 -784.989)" fill="#ff1b21"/>
        <path id="Path_1904" data-name="Path 1904" d="M741.492,899.069l-4.582-.535,1.073-9.193,4.3.5-.208,1.774-2.326-.27-.224,1.869,1.995.232-.2,1.708-1.995-.234-.237,2.032,2.613.305Z" transform="translate(-679.338 -791.216)" fill="#ff1b21"/>
        <path id="Path_1905" data-name="Path 1905" d="M801.4,899.951a4.179,4.179,0,0,1-1.676.426,3.646,3.646,0,0,1-2.859-1.071,5.1,5.1,0,0,1-1.313-3.5,5.233,5.233,0,0,1,.914-3.688,3.414,3.414,0,0,1,2.525-1.357,4.553,4.553,0,0,1,1.922.36l.105,1.938a6.043,6.043,0,0,0-1.042-.4,2.375,2.375,0,0,0-.5-.026,1.821,1.821,0,0,0-1.341.726,3.319,3.319,0,0,0-.472,2.273,3.506,3.506,0,0,0,.7,2.274,1.831,1.831,0,0,0,1.458.559,2.713,2.713,0,0,0,1.473-.63Z" transform="translate(-731.417 -792.477)" fill="#ff1b21"/>
        <path id="Path_1906" data-name="Path 1906" d="M852.092,881.229l-1.753.411,1.7,7.264-1.948.457-1.7-7.253-1.788.419-.415-1.76,5.491-1.287Z" transform="translate(-776.405 -782.458)" fill="#ff1b21"/>
        <path id="Path_1907" data-name="Path 1907" d="M909.055,870.213l-4.253,1.8-3.6-8.526,3.986-1.684.7,1.645-2.158.911.733,1.734,1.85-.782.671,1.584-1.851.782.8,1.884,2.423-1.024Z" transform="translate(-825.267 -766.754)" fill="#ff1b21"/>
        <path id="Path_1908" data-name="Path 1908" d="M946.44,841.469l1.845-1.229a3.816,3.816,0,0,1,3.109-.646,4.826,4.826,0,0,1,2.794,2.235,5.045,5.045,0,0,1,1.026,3.464,3.849,3.849,0,0,1-1.866,2.693l-1.783,1.187Zm2.608.266,3.273,4.917.2-.131a2.093,2.093,0,0,0,.769-1.1q.27-.768-.754-2.3a5.506,5.506,0,0,0-1.276-1.483,1.757,1.757,0,0,0-1.065-.323,1.845,1.845,0,0,0-.958.3Z" transform="translate(-865.451 -746.938)" fill="#ff1b21"/>
        <path id="Path_1909" data-name="Path 1909" d="M1054.32,818.336l-1.832,2-1.1-1.006,1.832-2Z" transform="translate(-958.672 -727.254)" fill="#ff1b21"/>
        <path id="Path_1910" data-name="Path 1910" d="M276.4,55.646a54.343,54.343,0,0,1,101.656,0h8.617a10.568,10.568,0,0,0-5.712-10.471,10.578,10.578,0,0,1-5.74-8.591,10.576,10.576,0,0,0-9.711-9.712,10.574,10.574,0,0,1-8.6-5.741,10.577,10.577,0,0,0-12.689-5.253,10.575,10.575,0,0,1-10.133-2.012h0a10.575,10.575,0,0,0-13.734,0h0a10.575,10.575,0,0,1-10.133,2.012h0a10.577,10.577,0,0,0-12.689,5.253h0a10.575,10.575,0,0,1-8.59,5.74,10.576,10.576,0,0,0-9.712,9.712,10.578,10.578,0,0,1-5.74,8.591h0a10.568,10.568,0,0,0-5.712,10.471Zm50.825-29.069a48.35,48.35,0,0,1,44.286,29.069h3a51.038,51.038,0,0,0-94.574,0h3A48.346,48.346,0,0,1,327.221,26.577ZM386.21,91.864h0c-.015-.045-.026-.091-.039-.135h-7.3a54.335,54.335,0,0,1-103.306,0h-7.3c-.013.045-.025.091-.039.135h0a10.576,10.576,0,0,0,5.253,12.689h0a10.578,10.578,0,0,1,5.74,8.591,10.573,10.573,0,0,0,9.712,9.711,10.573,10.573,0,0,1,8.59,5.741h0a10.576,10.576,0,0,0,12.689,5.253h0a10.578,10.578,0,0,1,10.133,2.012h0a10.575,10.575,0,0,0,13.734,0h0a10.578,10.578,0,0,1,10.133-2.012,10.576,10.576,0,0,0,12.689-5.253,10.574,10.574,0,0,1,8.591-5.741,10.573,10.573,0,0,0,9.711-9.711,10.578,10.578,0,0,1,5.74-8.591A10.575,10.575,0,0,0,386.21,91.864Zm-58.986,34.055A51.14,51.14,0,0,0,375.4,91.728h-2.939a48.282,48.282,0,0,1-90.486,0h-2.937a51.135,51.135,0,0,0,48.18,34.19Z" transform="translate(-262.579 -11.335)" fill="#ff1b21"/>
        <path id="Path_1911" data-name="Path 1911" d="M227.812,467.545V479.87H221.76V452.79h9.18a6.794,6.794,0,0,1,2.414.382,4.148,4.148,0,0,1,1.581,1.006,4.329,4.329,0,0,1,.909,1.648,9.864,9.864,0,0,1,.434,2.057q.1,1.027.1,2.49c0,.511-.008.926-.025,1.249a7.936,7.936,0,0,1-.188,1.229,4.177,4.177,0,0,1-.447,1.229,3.673,3.673,0,0,1-.875.969,4.16,4.16,0,0,1-1.419.731,3.169,3.169,0,0,1,1.377.57,2.354,2.354,0,0,1,.782,1.028,5.787,5.787,0,0,1,.323,1.13,7.342,7.342,0,0,1,.085,1.165q0,6.716-.068,10.2h-5.852V469.313a3.2,3.2,0,0,0-.127-1.006.879.879,0,0,0-.476-.536,2.129,2.129,0,0,0-.671-.194Q228.476,467.544,227.812,467.545Zm.035-9.741v5.049h1.5q1.19,0,1.19-2.482a3.17,3.17,0,0,0-.467-2.108,2.8,2.8,0,0,0-1.9-.459Z" transform="translate(-221.76 -403.454)" fill="#ff1b21"/>
        <path id="Path_1912" data-name="Path 1912" d="M376.53,479.87V452.79H388.5v5.253h-5.88v5.287h5.644v5.083h-5.644v6.17h6.273v5.287Z" transform="translate(-359.233 -403.454)" fill="#ff1b21"/>
        <path id="Path_1913" data-name="Path 1913" d="M508.485,480.176a9.032,9.032,0,0,1-2.728-.409,7.748,7.748,0,0,1-2.329-1.172,5.487,5.487,0,0,1-1.641-1.989,6,6,0,0,1-.611-2.72v-6.8h5.915v5.933a2.06,2.06,0,0,0,.323,1.2,1.138,1.138,0,0,0,1.006.468q1.359,0,1.36-2.364c0-.124,0-.286-.009-.484s-.008-.335-.008-.4V452.79H515.8v20.3a6.72,6.72,0,0,1-2.057,5.176A7.426,7.426,0,0,1,508.485,480.176Z" transform="translate(-469.948 -403.454)" fill="#ff1b21"/>
        <path id="Path_1914" data-name="Path 1914" d="M660.66,479.87V452.79h11.967v5.253h-5.882v5.287h5.644v5.083h-5.644v6.17h6.273v5.287Z" transform="translate(-611.609 -403.454)" fill="#ff1b21"/>
        <path id="Path_1915" data-name="Path 1915" d="M806.293,466.446v5.117q0,3.535-2.006,5.192a8.579,8.579,0,0,1-5.614,1.659,7.422,7.422,0,0,1-5.2-1.828,6.686,6.686,0,0,1-2.012-5.193V458.831q0-4.023,1.777-6.026t5.567-2a10.145,10.145,0,0,1,2.855.383,7.322,7.322,0,0,1,2.321,1.13,5.14,5.14,0,0,1,1.589,1.964,6.45,6.45,0,0,1,.578,2.794v4.777h-5.91v-3.143q0-2.431-1.428-2.431a1.124,1.124,0,0,0-1.118.535,3.425,3.425,0,0,0-.272,1.488v12.8a2.671,2.671,0,0,0,.382,1.445,1.145,1.145,0,0,0,1.006.611,1.331,1.331,0,0,0,1.006-.447,2.332,2.332,0,0,0,.426-1.606v-4.661Z" transform="translate(-727.791 -401.692)" fill="#ff1b21"/>
        <path id="Path_1916" data-name="Path 1916" d="M938.85,452.79h13.092v5.219H948.39V479.87H942.4V458.009H938.85Z" transform="translate(-858.709 -403.454)" fill="#ff1b21"/>
        <path id="Path_1917" data-name="Path 1917" d="M1075.52,479.87V452.79h11.967v5.253h-5.879v5.287h5.644v5.083h-5.644v6.17h6.273v5.287Z" transform="translate(-980.105 -403.454)" fill="#ff1b21"/>
        <path id="Path_1918" data-name="Path 1918" d="M1209.75,479.87V452.79h8.244q3.353,0,4.887,1.709a6.831,6.831,0,0,1,1.556,4.683l.068,12.648q0,4.064-1.59,6.052t-5.125,1.989Zm6.018-22.287v17.339a.782.782,0,0,1,.2-.017q.1,0,.382.017c.187.012.335.018.447.018q1.717,0,1.718-1.445V460.134a3.243,3.243,0,0,0-.468-2.032,2.029,2.029,0,0,0-1.623-.552Q1216.243,457.55,1215.768,457.583Z" transform="translate(-1099.334 -403.454)" fill="#ff1b21"/>
        <rect id="Rectangle_1594" data-name="Rectangle 1594" width="35.821" height="2.876" transform="translate(45.915 39.925)" fill="#ff1b21"/>
        <rect id="Rectangle_1595" data-name="Rectangle 1595" width="35.821" height="2.876" transform="translate(45.915 80.713)" fill="#ff1b21"/>
      </g>
    </g>
  </g>
</svg>
